<?xml version="1.0"?>
<svg version="1.1" xmlns="http://www.w3.org/2000/svg" width="305px" height="150px" style="border: dashed 2px #aaa"><path fill="#098be8" d="M31,91.224c0,6.672-5.424,10.272-11.664,10.272c-2.88,0-6.288-0.528-9.168-1.536c-0.624-0.24-0.816-0.528-0.816-0.912c0-0.192,0-0.384,0.096-0.624l1.008-3.12c0.144-0.48,0.384-0.768,0.864-0.768c0.192,0,0.432,0.048,0.72,0.144c2.256,0.816,4.752,1.44,7.152,1.44c2.592,0,5.52-1.248,5.52-4.272c0-2.208-1.632-3.408-3.504-4.32l-6.24-3.12c-3.408-1.68-5.664-4.512-5.664-8.256c0-5.856,5.76-9.072,11.088-9.072c3.168,0,5.808,0.48,8.592,1.68c0.624,0.288,0.96,0.576,0.96,0.96c0,0.192-0.048,0.384-0.144,0.624l-1.152,2.928c-0.192,0.528-0.48,0.72-0.816,0.72c-0.24,0-0.48-0.096-0.768-0.192c-1.968-0.816-4.416-1.488-6.336-1.488c-2.256,0-4.848,0.96-4.848,3.648c0,1.968,1.824,3.12,3.408,3.888l5.328,2.592c3.792,1.824,6.384,4.368,6.384,8.784z M59.488,99.576c0,1.008-0.288,1.344-1.248,1.344l-3.072,0c-0.624,0-1.104-0.336-1.152-0.96l-0.048-1.2c-2.208,1.776-4.848,2.736-7.632,2.736c-5.376,0-7.584-3.408-7.584-8.592l0-14.16c0-0.816,0.48-1.104,1.248-1.104l3.36,0c0.768,0,1.2,0.24,1.2,1.104l0,13.152c0,2.64,0.672,4.464,3.552,4.464c1.824,0,4.128-1.008,5.568-2.304l0-15.312c0-0.816,0.432-1.104,1.2-1.104l3.408,0c0.768,0,1.2,0.24,1.2,1.104l0,20.832z M90.424,88.968c0,3.648-1.104,6.96-3.12,9.312c-1.776,2.016-4.272,3.264-7.392,3.264c-2.208,0-4.416-0.816-5.808-2.256l0,10.752c0,0.96-0.432,1.248-1.248,1.248l-3.36,0c-0.768,0-1.152-0.432-1.152-1.248l0-31.296c0-0.816,0.384-1.104,1.152-1.104l2.88,0c0.816,0,1.248,0.192,1.296,0.912l0.048,1.296c1.392-1.584,4.128-2.784,6.72-2.784c3.168,0,5.376,1.2,6.96,2.928c2.064,2.256,3.024,5.616,3.024,8.976z M84.376,89.256c0-2.256-0.432-4.224-1.392-5.568c-0.912-1.296-2.256-1.968-3.936-1.968c-1.776,0-3.984,1.152-4.944,2.352l0,10.464c0.96,1.296,2.88,2.352,4.704,2.352c1.68,0,3.024-0.768,3.84-1.776c1.2-1.488,1.728-3.504,1.728-5.856z M120.544,100.008c0,0.576-0.384,0.912-0.96,0.912l-2.304,0c-2.496,0-3.6-1.2-3.936-2.832l-0.096,0c-1.2,1.776-4.32,3.408-6.96,3.408c-6.768,0-9.84-5.568-9.84-11.808c0-8.304,4.992-12.672,10.368-12.672c2.544,0,4.944,1.152,6.144,2.784l0.096-1.296c0.048-0.528,0.432-0.864,1.008-0.864l3.36,0c0.624,0,1.008,0.336,1.008,1.056l0,16.656c0,0.672,0.096,1.152,0.288,1.392c0.144,0.144,0.336,0.192,0.576,0.192l0.384,0c0.576,0,0.864,0.192,0.864,0.816l0,2.256z M112.624,93.48l0-9.264c-0.96-1.392-2.928-2.448-4.752-2.448c-2.928,0-5.424,2.496-5.424,7.536c0,4.032,1.536,7.44,5.088,7.44c2.352,0,4.368-1.776,5.088-3.264z M148.552,91.224c0,6.672-5.424,10.272-11.664,10.272c-2.88,0-6.288-0.528-9.168-1.536c-0.624-0.24-0.816-0.528-0.816-0.912c0-0.192,0-0.384,0.096-0.624l1.008-3.12c0.144-0.48,0.384-0.768,0.864-0.768c0.192,0,0.432,0.048,0.72,0.144c2.256,0.816,4.752,1.44,7.152,1.44c2.592,0,5.52-1.248,5.52-4.272c0-2.208-1.632-3.408-3.504-4.32l-6.24-3.12c-3.408-1.68-5.664-4.512-5.664-8.256c0-5.856,5.76-9.072,11.088-9.072c3.168,0,5.808,0.48,8.592,1.68c0.624,0.288,0.96,0.576,0.96,0.96c0,0.192-0.048,0.384-0.144,0.624l-1.152,2.928c-0.192,0.528-0.48,0.72-0.816,0.72c-0.24,0-0.48-0.096-0.768-0.192c-1.968-0.816-4.416-1.488-6.336-1.488c-2.256,0-4.848,0.96-4.848,3.648c0,1.968,1.824,3.12,3.408,3.888l5.328,2.592c3.792,1.824,6.384,4.368,6.384,8.784z M170.848,99.48c0,0.48-0.24,0.72-0.72,0.912c-1.488,0.624-3.456,1.104-5.376,1.104c-2.448,0-4.56-0.624-5.76-2.016c-1.488-1.68-1.536-3.648-1.536-7.152l0-10.704l-2.256,0c-0.912,0-1.056-0.192-1.056-1.2l0-1.824c0-0.576,0.288-0.96,0.864-0.96l2.448,0l0-5.232c0-0.816,0.432-1.056,1.2-1.152l3.456-0.432l0.24,0c0.624,0,0.912,0.336,0.912,1.056l0,5.76l5.424,0c0.576,0,0.912,0.192,0.912,0.816l0,2.256c0,0.576-0.384,0.912-0.96,0.912l-5.376,0l0,10.992c0,1.44,0.096,2.496,0.624,3.264c0.432,0.624,1.104,1.008,2.256,1.008c1.2,0,2.208-0.288,3.072-0.576c0.192-0.048,0.336-0.096,0.48-0.096c0.336,0,0.528,0.192,0.624,0.576l0.48,2.4c0.048,0.144,0.048,0.192,0.048,0.288z M199.192,89.256c0,6.912-4.224,12.24-11.712,12.24c-7.824,0-11.424-5.28-11.424-12.288c0-6.912,4.224-12.192,11.712-12.192c7.824,0,11.424,5.184,11.424,12.24z M193.192,89.256c0-3.936-1.248-7.68-5.472-7.68c-4.272,0-5.664,3.696-5.664,7.536c0,3.936,1.2,7.824,5.472,7.824c4.224,0,5.664-3.744,5.664-7.68z M219.856,77.832c0,0.144,0,0.288-0.048,0.432l-0.528,3.408c-0.048,0.432-0.288,0.624-0.672,0.624l-0.192,0c-0.384-0.096-0.864-0.144-1.296-0.144c-1.632,0-3.408,0.864-4.608,2.304l0,15.264c0,0.768-0.336,1.2-1.152,1.2l-3.504,0c-0.768,0-1.152-0.384-1.152-1.2l0-14.976l0-5.904c0-0.96,0.48-1.2,1.2-1.2l3.072,0c0.768,0,1.2,0.24,1.2,0.912l0.048,1.536c1.488-1.872,3.12-3.072,5.808-3.072c0.384,0,0.912,0.096,1.344,0.192c0.336,0.096,0.48,0.24,0.48,0.624z M246.472,89.208c0,1.152-0.384,1.392-1.584,1.392l-14.064,0c0.384,3.696,3.072,6.24,6.864,6.24c2.016,0,4.128-0.48,5.904-1.152c0.192-0.048,0.336-0.144,0.528-0.144c0.336,0,0.576,0.192,0.672,0.576l0.672,2.448c0.048,0.24,0.096,0.432,0.096,0.576c0,0.336-0.192,0.576-0.768,0.816c-2.352,1.056-5.568,1.536-8.064,1.536c-7.536,0-12-4.8-12-12.288c0-7.2,4.752-12.192,11.904-12.192c2.928,0,5.328,1.104,7.008,2.88c2.208,2.304,2.832,5.328,2.832,8.592l0,0.72z M240.76,86.808l0-0.528c-0.096-2.496-1.536-4.8-4.464-4.8c-3.12,0-4.992,2.496-5.376,5.328l9.84,0z"/><path fill="#078ded" d="M237,69.544921875q0-0.19140625,0.2666015625-0.2939453125t0.3486328125-0.1025390625l0.505859375-0.08203125q0.505859375-0.08203125,1.025390625-0.1435546875t1.01171875-0.1162109375q1.736328125-0.21875,3.47265625-0.4306640625t3.5-0.2119140625q0.13671875,0,0.3759765625,0.013671875t0.478515625,0.0751953125t0.41015625,0.1708984375t0.1708984375,0.30078125q0,0.13671875-0.1298828125,0.2392578125t-0.3076171875,0.1572265625t-0.3623046875,0.068359375t-0.2939453125,0.013671875l-0.2392578125,0t-0.2392578125-0.0546875q-0.724609375,0-1.4287109375,0.068359375t-1.4287109375,0.123046875q0.19140625,0.21875,0.205078125,0.615234375t0.02734375,0.68359375q0,4.83984375,0.068359375,9.625t0.123046875,9.666015625l0,0.02734375q-0.451171875,0.396484375-0.7724609375,0.505859375t-0.6494140625,0.109375q-0.314453125,0-0.6357421875-0.1162109375t-0.7724609375-0.4990234375l0-0.02734375l0.109375-10.732421875q0-1.06640625-0.02734375-2.3515625t-0.02734375-2.6044921875t0.041015625-2.5498046875t0.21875-2.146484375q-0.806640625,0.08203125-1.708984375,0.24609375q-0.779296875,0.13671875-1.490234375,0.13671875l-0.24609375,0q-0.0546875,0-0.3212890625,0.013671875t-0.546875-0.013671875t-0.505859375-0.109375t-0.2255859375-0.2734375z M250.51697265625,84.4609375q0-0.95703125,0.2119140625-2.255859375t0.7177734375-2.4609375t1.3330078125-1.9755859375t2.0849609375-0.8134765625q1.17578125,0,1.763671875,0.6767578125t0.587890625,1.8251953125q0,0.751953125-0.2802734375,1.6474609375t-0.7998046875,1.6953125t-1.23046875,1.3330078125t-1.5859375,0.533203125l-0.35546875-0.02734375q0,0.369140625,0.109375,0.9912109375t0.3212890625,1.2373046875t0.546875,1.080078125t0.8134765625,0.46484375q0.697265625,0,1.33984375-0.560546875t1.216796875-1.244140625t1.06640625-1.244140625t0.90234375-0.560546875q0.21875,0,0.451171875,0.068359375t0.259765625,0.3828125q0,0.19140625-0.1025390625,0.314453125t-0.1845703125,0.2734375q-0.423828125,0.724609375-0.9228515625,1.380859375t-1.1279296875,1.189453125t-1.3740234375,0.8408203125t-1.6474609375,0.3076171875q-1.17578125,0-1.955078125-0.4169921875t-1.2578125-1.12109375t-0.6904296875-1.626953125t-0.2119140625-1.9345703125z M252.96423828125,83.421875l0.3828125,0.341796875q0.2734375,0.24609375,0.546875,0.109375t0.4921875-0.4990234375t0.4033203125-0.8955078125t0.328125-1.09375t0.2119140625-1.09375t0.068359375-0.888671875l0-0.46484375t-0.041015625-0.4921875t-0.1435546875-0.3896484375t-0.3212890625-0.1982421875q-0.068359375-0.013671875-0.123046875-0.013671875q-0.46484375,0-0.79296875,0.587890625q-0.35546875,0.65625-0.57421875,1.5927734375t-0.314453125,1.9208984375t-0.123046875,1.4765625z M261.9558203125,83.96875l0-0.396484375q0-0.4921875,0.02734375-0.9296875q0.02734375-0.615234375,0.02734375-1.01171875q0-0.21875,0.02734375-0.4990234375t0.13671875-0.4443359375q0.13671875-0.13671875,0.3212890625-0.2802734375t0.4033203125-0.1435546875q0.697265625,0,1.09375,0.1572265625t0.423828125,0.6494140625l0.0546875,0.423828125q0.24609375-0.587890625,0.65625-1.4560546875t0.9501953125-1.654296875t1.216796875-1.33984375t1.4287109375-0.5537109375q0.697265625,0,1.1484375,0.65625t0.7177734375,1.6748046875t0.3759765625,2.26953125t0.150390625,2.4541015625t0.0546875,2.1943359375t0.095703125,1.4970703125q0.0546875,0.423828125,0.1845703125,0.8955078125t0.1298828125,0.8681640625q0,0.109375-0.1572265625,0.2119140625t-0.3349609375,0.1708984375t-0.3623046875,0.109375t-0.2666015625,0.041015625q-0.533203125,0-0.7587890625-0.7998046875t-0.2802734375-2.0029296875t-0.0546875-2.6044921875t-0.095703125-2.6044921875t-0.3896484375-2.0029296875t-0.9365234375-0.8271484375q-0.587890625,0-1.216796875,0.7587890625t-1.080078125,2.0166015625q-0.4375,1.2578125-0.6015625,2.857421875q-0.0546875,0.505859375-0.0546875,1.01171875q0,1.107421875,0.232421875,2.21484375q0.02734375,0.19140625-0.1572265625,0.287109375t-0.4580078125,0.150390625t-0.5537109375,0.068359375t-0.4306640625,0.013671875q-0.533203125,0-0.8544921875-0.3759765625t-0.4990234375-0.9638671875t-0.2392578125-1.3193359375t-0.0751953125-1.4423828125z M274.39271484375,83.96875l0-0.396484375q0-0.4921875,0.02734375-0.9296875q0.02734375-0.615234375,0.02734375-1.01171875q0-0.21875,0.02734375-0.4990234375t0.13671875-0.4443359375q0.13671875-0.13671875,0.3212890625-0.2802734375t0.4033203125-0.1435546875q0.697265625,0,1.09375,0.1572265625t0.423828125,0.6494140625l0.0546875,0.423828125q0.24609375-0.587890625,0.65625-1.4560546875t0.9501953125-1.654296875t1.216796875-1.33984375t1.4287109375-0.5537109375q0.697265625,0,1.1484375,0.65625t0.7177734375,1.6748046875t0.3759765625,2.26953125t0.150390625,2.4541015625t0.0546875,2.1943359375t0.095703125,1.4970703125q0.0546875,0.423828125,0.1845703125,0.8955078125t0.1298828125,0.8681640625q0,0.109375-0.1572265625,0.2119140625t-0.3349609375,0.1708984375t-0.3623046875,0.109375t-0.2666015625,0.041015625q-0.533203125,0-0.7587890625-0.7998046875t-0.2802734375-2.0029296875t-0.0546875-2.6044921875t-0.095703125-2.6044921875t-0.3896484375-2.0029296875t-0.9365234375-0.8271484375q-0.587890625,0-1.216796875,0.7587890625t-1.080078125,2.0166015625q-0.4375,1.2578125-0.6015625,2.857421875q-0.0546875,0.505859375-0.0546875,1.01171875q0,1.107421875,0.232421875,2.21484375q0.02734375,0.19140625-0.1572265625,0.287109375t-0.4580078125,0.150390625t-0.5537109375,0.068359375t-0.4306640625,0.013671875q-0.533203125,0-0.8544921875-0.3759765625t-0.4990234375-0.9638671875t-0.2392578125-1.3193359375t-0.0751953125-1.4423828125z M286.8159375,83.572265625q0-1.2578125,0.2939453125-2.4677734375t0.4990234375-2.4130859375q0.0546875-0.314453125,0.4306640625-0.3896484375t0.6357421875-0.0751953125q0.451171875,0,0.724609375,0.13671875q0.109375,0.0546875,0.205078125,0.123046875t0.095703125,0.177734375q0,1.17578125-0.2802734375,2.296875t-0.2802734375,2.37890625q0,0.423828125,0.0615234375,0.7998046875t0.1162109375,0.7451171875l0.08203125,0.396484375q0,0.109375,0.013671875,0.19140625t0.041015625,0.19140625q0,0.24609375-0.3486328125,0.3349609375t-0.6083984375,0.0888671875q-0.396484375,0-0.7314453125-0.1572265625t-0.5263671875-0.5400390625l-0.19140625-0.396484375q-0.1640625-0.314453125-0.1640625-0.7041015625t-0.068359375-0.7177734375z M287.6909375,75.341796875l0-0.259765625q0-0.642578125,0.3212890625-1.1484375t0.9638671875-0.505859375q0.08203125,0,0.1572265625,0.013671875t0.1572265625,0.013671875q0.1640625,0.02734375,0.4306640625,0.1298828125t0.2666015625,0.3212890625l0,0.02734375q-0.0546875,0.109375-0.068359375,0.2255859375t-0.068359375,0.1982421875l0.02734375-0.02734375q-0.1640625,0.423828125-0.2666015625,0.68359375t-0.2255859375,0.4169921875t-0.3076171875,0.2255859375t-0.5263671875,0.068359375q-0.0546875,0-0.19140625-0.013671875t-0.2939453125-0.0546875t-0.2666015625-0.109375t-0.109375-0.205078125z M292.78603515625,80.373046875q0-0.560546875,0.328125-0.9638671875t0.7998046875-0.65625t1.0322265625-0.3759765625t1.0390625-0.123046875q0.369140625,0,0.984375,0.109375t1.203125,0.328125t1.0185546875,0.57421875t0.4306640625,0.833984375q0,0.21875-0.1640625,0.3896484375t-0.341796875,0.1708984375q-0.369140625,0-0.669921875-0.2392578125t-0.6220703125-0.505859375t-0.7041015625-0.505859375t-0.861328125-0.2392578125t-0.8681640625,0.3076171875t-0.3896484375,0.8134765625q0,0.833984375,0.587890625,1.6337890625t1.2919921875,1.681640625t1.2919921875,1.8525390625t0.587890625,2.146484375q0,0.505859375-0.2119140625,0.8544921875t-0.560546875,0.5673828125t-0.7861328125,0.3349609375t-0.84765625,0.1162109375q-0.451171875,0-1.052734375-0.2119140625t-1.134765625-0.560546875t-0.8955078125-0.8134765625t-0.3623046875-0.970703125q0-0.24609375,0.3486328125-0.314453125t0.5126953125-0.068359375q0.08203125,0,0.2529296875,0.0546875t0.3349609375,0.123046875t0.2939453125,0.150390625t0.1025390625,0.177734375q0.13671875,0.1640625,0.4169921875,0.4853515625t0.560546875,0.51953125t0.4921875,0.1435546875t0.2119140625-0.615234375q0-1.06640625-0.57421875-1.9619140625t-1.2509765625-1.75t-1.2509765625-1.6953125t-0.57421875-1.7978515625z"/></svg>
